<svg xmlns="http://www.w3.org/2000/svg" width="960" height="430" viewBox="0 0 960 430" role="img">
<style>
.title{font:700 26px Arial,Helvetica,sans-serif;fill:#20262e}
.subtitle{font:400 13px Arial,Helvetica,sans-serif;fill:#66717d}
.label{font:700 12px Arial,Helvetica,sans-serif;fill:#20262e}
.text{font:400 12px Arial,Helvetica,sans-serif;fill:#20262e}
.small{font:400 11px Arial,Helvetica,sans-serif;fill:#66717d}
.tiny{font:400 10px Arial,Helvetica,sans-serif;fill:#66717d}
.num{font:700 32px Arial,Helvetica,sans-serif;fill:#20262e}
.axis{font:400 10px Arial,Helvetica,sans-serif;fill:#66717d}
.grid{stroke:#ded9cc;stroke-width:1;shape-rendering:crispEdges}
.baseline{stroke:#20262e;stroke-width:1.1;shape-rendering:crispEdges}
.soft{fill:#f7f3ea;stroke:#ded9cc;stroke-width:1.2}
</style>
<text class="title" x="42" y="42">Feature-Engineering Depth</text>
<text class="subtitle" x="42" y="64">Named helper functions found in notebooks. Titanic and LendingClub show the deepest custom engineering.</text>
<line class="grid" x1="270.0" y1="84" x2="270.0" y2="356"/>
<text class="axis" x="270.0" y="382" text-anchor="middle">0</text>
<line class="grid" x1="415.0" y1="84" x2="415.0" y2="356"/>
<text class="axis" x="415.0" y="382" text-anchor="middle">5</text>
<line class="grid" x1="560.0" y1="84" x2="560.0" y2="356"/>
<text class="axis" x="560.0" y="382" text-anchor="middle">10</text>
<line class="grid" x1="705.0" y1="84" x2="705.0" y2="356"/>
<text class="axis" x="705.0" y="382" text-anchor="middle">15</text>
<line class="grid" x1="850.0" y1="84" x2="850.0" y2="356"/>
<text class="axis" x="850.0" y="382" text-anchor="middle">20</text>
<line class="baseline" x1="270" y1="356" x2="850" y2="356"/>
<text class="text" x="42" y="100">Linear Regression</text>
<line x1="270" y1="96" x2="270.0" y2="96" stroke="#f1eee7" stroke-width="2"/>
<circle cx="270.0" cy="96" r="6.5" fill="white" stroke="#2E6F8E" stroke-width="2.4"/>
<text class="small" x="282.0" y="100">0</text>
<text class="text" x="42" y="134">Logistic Regression</text>
<line x1="270" y1="130" x2="270.0" y2="130" stroke="#f1eee7" stroke-width="2"/>
<circle cx="270.0" cy="130" r="6.5" fill="white" stroke="#B45F3C" stroke-width="2.4"/>
<text class="small" x="282.0" y="134">0</text>
<text class="text" x="42" y="168">KNN</text>
<line x1="270" y1="164" x2="270.0" y2="164" stroke="#f1eee7" stroke-width="2"/>
<circle cx="270.0" cy="164" r="6.5" fill="white" stroke="#B45F3C" stroke-width="2.4"/>
<text class="small" x="282.0" y="168">0</text>
<text class="text" x="42" y="202">SVM</text>
<line x1="270" y1="198" x2="270.0" y2="198" stroke="#f1eee7" stroke-width="2"/>
<circle cx="270.0" cy="198" r="6.5" fill="white" stroke="#B45F3C" stroke-width="2.4"/>
<text class="small" x="282.0" y="202">0</text>
<text class="text" x="42" y="236">Decision Trees &amp; RF</text>
<line x1="270" y1="232" x2="270.0" y2="232" stroke="#f1eee7" stroke-width="2"/>
<circle cx="270.0" cy="232" r="6.5" fill="white" stroke="#B45F3C" stroke-width="2.4"/>
<text class="small" x="282.0" y="236">0</text>
<text class="text" x="42" y="270">K-Means</text>
<line x1="270" y1="266" x2="415.0" y2="266" stroke="#f1eee7" stroke-width="2"/>
<circle cx="415.0" cy="266" r="6.5" fill="white" stroke="#3F7D5A" stroke-width="2.4"/>
<text class="small" x="427.0" y="270">5</text>
<text class="text" x="42" y="304">Titanic Kaggle</text>
<line x1="270" y1="300" x2="647.0" y2="300" stroke="#f1eee7" stroke-width="2"/>
<circle cx="647.0" cy="300" r="6.5" fill="white" stroke="#B45F3C" stroke-width="2.4"/>
<text class="small" x="659.0" y="304">13</text>
<text class="text" x="42" y="338">LendingClub NN</text>
<line x1="270" y1="334" x2="821.0" y2="334" stroke="#f1eee7" stroke-width="2"/>
<circle cx="821.0" cy="334" r="6.5" fill="white" stroke="#6B5CA5" stroke-width="2.4"/>
<text class="small" x="833.0" y="338">19</text>
<text class="axis" x="560" y="410" text-anchor="middle">Named feature/algorithm helper functions</text>
</svg>
