<svg xmlns="http://www.w3.org/2000/svg" width="960" height="330" viewBox="0 0 960 330" role="img">
<style>
.title{font:700 26px Arial,Helvetica,sans-serif;fill:#20262e}
.subtitle{font:400 13px Arial,Helvetica,sans-serif;fill:#66717d}
.label{font:700 12px Arial,Helvetica,sans-serif;fill:#20262e}
.text{font:400 12px Arial,Helvetica,sans-serif;fill:#20262e}
.small{font:400 11px Arial,Helvetica,sans-serif;fill:#66717d}
.tiny{font:400 10px Arial,Helvetica,sans-serif;fill:#66717d}
.num{font:700 32px Arial,Helvetica,sans-serif;fill:#20262e}
.axis{font:400 10px Arial,Helvetica,sans-serif;fill:#66717d}
.grid{stroke:#ded9cc;stroke-width:1;shape-rendering:crispEdges}
.baseline{stroke:#20262e;stroke-width:1.1;shape-rendering:crispEdges}
.sketch{fill:none;stroke:#20262e;stroke-width:2.2;stroke-linecap:round;stroke-linejoin:round}
.soft{fill:#f7f3ea;stroke:#ded9cc;stroke-width:1.2}
</style>
<text class="title" x="42" y="44">Applied ML Lab</text>
<text class="subtitle" x="42" y="66">A visual summary of the portfolio: data, models, evaluation, and communication.</text>
<path class="sketch" d="M70 282 C220 270, 380 290, 540 279 S780 270, 900 286"/>
<path class="sketch" d="M400 166 L560 166 L586 260 L366 260 Z" fill="#ffffff"/>
<path d="M430 196 C462 180, 498 210, 535 190" fill="none" stroke="#2E6F8E" stroke-width="3" stroke-linecap="round"/>
<circle cx="456" cy="210" r="5" fill="#B45F3C"/><circle cx="495" cy="202" r="5" fill="#3F7D5A"/><circle cx="528" cy="192" r="5" fill="#6B5CA5"/>
<circle cx="268" cy="142" r="33" fill="#f7d8bd" stroke="#20262e" stroke-width="2"/>
<path class="sketch" d="M238 137 C248 102, 298 102, 305 139" fill="#5b4636"/>
<path class="sketch" d="M255 148 C263 155, 275 155, 284 148"/>
<circle cx="258" cy="137" r="3" fill="#20262e"/><circle cx="281" cy="137" r="3" fill="#20262e"/>
<path class="sketch" d="M238 176 C218 210, 214 244, 225 272 M300 176 C330 210, 338 240, 320 273"/>
<path d="M232 178 C250 196, 288 196, 305 178 L326 277 L212 277 Z" fill="#dbeafe" stroke="#20262e" stroke-width="2"/>
<path class="sketch" d="M306 210 C338 218, 362 230, 386 244"/>
<circle cx="95" cy="136" r="12" fill="#B45F3C" opacity="0.9"/>
<circle cx="132" cy="116" r="12" fill="#2E6F8E" opacity="0.9"/>
<circle cx="160" cy="156" r="12" fill="#3F7D5A" opacity="0.9"/>
<circle cx="108" cy="192" r="12" fill="#6B5CA5" opacity="0.9"/>
<circle cx="168" cy="216" r="12" fill="#B45F3C" opacity="0.9"/>
<path class="sketch" d="M95 136 L132 116 L160 156 L108 192 L168 216 M132 116 L108 192 M160 156 L168 216" opacity="0.65"/>
<text class="small" x="78" y="94">data graph</text>
<path class="sketch" d="M650 124 C688 94, 742 96, 778 130 C818 168, 810 222, 764 248 C717 276, 650 254, 630 206 C616 174, 624 146, 650 124" fill="#fffaf0"/>
<circle cx="682" cy="154" r="9" fill="#2E6F8E"/>
<circle cx="728" cy="145" r="9" fill="#B45F3C"/>
<circle cx="762" cy="182" r="9" fill="#3F7D5A"/>
<circle cx="706" cy="207" r="9" fill="#6B5CA5"/>
<circle cx="750" cy="226" r="9" fill="#2E6F8E"/>
<path class="sketch" d="M682 154 L728 145 L762 182 L750 226 L706 207 L682 154 M728 145 L706 207 M762 182 L706 207" opacity="0.7"/>
<text class="small" x="654" y="286">model diagnostics</text>
</svg>
