<svg xmlns="http://www.w3.org/2000/svg" width="960" height="410" viewBox="0 0 960 410" role="img">
<style>
.title{font:700 26px Arial,Helvetica,sans-serif;fill:#20262e}
.subtitle{font:400 13px Arial,Helvetica,sans-serif;fill:#66717d}
.label{font:700 12px Arial,Helvetica,sans-serif;fill:#20262e}
.text{font:400 12px Arial,Helvetica,sans-serif;fill:#20262e}
.small{font:400 11px Arial,Helvetica,sans-serif;fill:#66717d}
.tiny{font:400 10px Arial,Helvetica,sans-serif;fill:#66717d}
.num{font:700 30px Arial,Helvetica,sans-serif;fill:#20262e}
.axis{font:400 10px Arial,Helvetica,sans-serif;fill:#66717d}
.grid{stroke:#ded9cc;stroke-width:1;shape-rendering:crispEdges}
.baseline{stroke:#20262e;stroke-width:1.1;shape-rendering:crispEdges}
.arrow{fill:none;stroke:#66717d;stroke-width:1.8;stroke-linecap:round;stroke-linejoin:round}
.node{fill:white;stroke:#ded9cc;stroke-width:1.2}
</style>
<rect class="figure-bg" x="0" y="0" width="960" height="410" fill="#ffffff" stroke="#d9dee7" stroke-width="1"/>
<text class="title" x="42" y="44">Portfolio Visual Summary</text>
<text class="subtitle" x="42" y="66">Eight applied ML projects organized by workflow stage, model family, dataset scale, and evaluation evidence.</text>
<circle cx="96" cy="158" r="38" fill="white" stroke="#2E6F8E" stroke-width="3"/>
<circle cx="96" cy="158" r="8" fill="#2E6F8E"/>
<text class="label" x="96" y="220" text-anchor="middle">Data</text>
<text class="tiny" x="96" y="236" text-anchor="middle">8 local</text>
<text class="tiny" x="96" y="249" text-anchor="middle">data files</text>
<path class="arrow" d="M141 158 L191 158"/>
<path d="M188 153 L198 158 L188 163" fill="none" stroke="#66717d" stroke-width="1.8" stroke-linecap="round" stroke-linejoin="round"/>
<circle cx="236" cy="158" r="38" fill="white" stroke="#3F7D5A" stroke-width="3"/>
<circle cx="236" cy="158" r="8" fill="#3F7D5A"/>
<text class="label" x="236" y="220" text-anchor="middle">EDA</text>
<text class="tiny" x="236" y="236" text-anchor="middle">notebook</text>
<text class="tiny" x="236" y="249" text-anchor="middle">analysis</text>
<path class="arrow" d="M281 158 L331 158"/>
<path d="M328 153 L338 158 L328 163" fill="none" stroke="#66717d" stroke-width="1.8" stroke-linecap="round" stroke-linejoin="round"/>
<circle cx="376" cy="158" r="38" fill="white" stroke="#C49A3A" stroke-width="3"/>
<circle cx="376" cy="158" r="8" fill="#C49A3A"/>
<text class="label" x="376" y="220" text-anchor="middle">Features</text>
<text class="tiny" x="376" y="236" text-anchor="middle">custom</text>
<text class="tiny" x="376" y="249" text-anchor="middle">engineering</text>
<path class="arrow" d="M421 158 L471 158"/>
<path d="M468 153 L478 158 L468 163" fill="none" stroke="#66717d" stroke-width="1.8" stroke-linecap="round" stroke-linejoin="round"/>
<circle cx="516" cy="158" r="38" fill="white" stroke="#B45F3C" stroke-width="3"/>
<circle cx="516" cy="158" r="8" fill="#B45F3C"/>
<text class="label" x="516" y="220" text-anchor="middle">Models</text>
<text class="tiny" x="516" y="236" text-anchor="middle">8 project</text>
<text class="tiny" x="516" y="249" text-anchor="middle">families</text>
<path class="arrow" d="M561 158 L611 158"/>
<path d="M608 153 L618 158 L608 163" fill="none" stroke="#66717d" stroke-width="1.8" stroke-linecap="round" stroke-linejoin="round"/>
<circle cx="656" cy="158" r="38" fill="white" stroke="#6B5CA5" stroke-width="3"/>
<circle cx="656" cy="158" r="8" fill="#6B5CA5"/>
<text class="label" x="656" y="220" text-anchor="middle">Evaluation</text>
<text class="tiny" x="656" y="236" text-anchor="middle">reported</text>
<text class="tiny" x="656" y="249" text-anchor="middle">metrics</text>
<path class="arrow" d="M701 158 L751 158"/>
<path d="M748 153 L758 158 L748 163" fill="none" stroke="#66717d" stroke-width="1.8" stroke-linecap="round" stroke-linejoin="round"/>
<circle cx="796" cy="158" r="38" fill="white" stroke="#2E6F8E" stroke-width="3"/>
<circle cx="796" cy="158" r="8" fill="#2E6F8E"/>
<text class="label" x="796" y="220" text-anchor="middle">Artifacts</text>
<text class="tiny" x="796" y="236" text-anchor="middle">READMEs</text>
<text class="tiny" x="796" y="249" text-anchor="middle">figures</text>
<text class="label" x="42" y="286">Coverage highlights</text>
<line x1="205.0" y1="282" x2="611.2" y2="282" stroke="#B45F3C" stroke-width="13"/>
<text class="tiny" x="408.1" y="310" text-anchor="middle">Classical ML: 5</text>
<line x1="611.2" y1="282" x2="692.5" y2="282" stroke="#2E6F8E" stroke-width="13"/>
<text class="tiny" x="651.9" y="310" text-anchor="middle">Regression: 1</text>
<line x1="692.5" y1="282" x2="773.8" y2="282" stroke="#3F7D5A" stroke-width="13"/>
<text class="tiny" x="733.1" y="310" text-anchor="middle">Clustering: 1</text>
<line x1="773.8" y1="282" x2="855.0" y2="282" stroke="#6B5CA5" stroke-width="13"/>
<text class="tiny" x="814.4" y="310" text-anchor="middle">Neural network: 1</text>
<text class="num" x="104" y="350" text-anchor="middle">396,030</text>
<line x1="62" y1="360" x2="146" y2="360" stroke="#6B5CA5" stroke-width="3"/>
<text class="small" x="104" y="380" text-anchor="middle">LendingClub records</text>
<text class="num" x="334" y="350" text-anchor="middle">0.989</text>
<line x1="292" y1="360" x2="376" y2="360" stroke="#2E6F8E" stroke-width="3"/>
<text class="small" x="334" y="380" text-anchor="middle">explained variance</text>
<text class="num" x="552" y="350" text-anchor="middle">0.93</text>
<line x1="510" y1="360" x2="594" y2="360" stroke="#B45F3C" stroke-width="3"/>
<text class="small" x="552" y="380" text-anchor="middle">ad-click accuracy</text>
<text class="num" x="756" y="350" text-anchor="middle">0.87</text>
<line x1="714" y1="360" x2="798" y2="360" stroke="#6B5CA5" stroke-width="3"/>
<text class="small" x="756" y="380" text-anchor="middle">NN accuracy</text>
</svg>
