<svg xmlns="http://www.w3.org/2000/svg" width="960" height="385" viewBox="0 0 960 385" role="img">
<style>
.title{font:700 26px Arial,Helvetica,sans-serif;fill:#20262e}
.subtitle{font:400 13px Arial,Helvetica,sans-serif;fill:#66717d}
.label{font:700 12px Arial,Helvetica,sans-serif;fill:#20262e}
.text{font:400 12px Arial,Helvetica,sans-serif;fill:#20262e}
.small{font:400 11px Arial,Helvetica,sans-serif;fill:#66717d}
.tiny{font:400 10px Arial,Helvetica,sans-serif;fill:#66717d}
.num{font:700 30px Arial,Helvetica,sans-serif;fill:#20262e}
.axis{font:400 10px Arial,Helvetica,sans-serif;fill:#66717d}
.grid{stroke:#ded9cc;stroke-width:1;shape-rendering:crispEdges}
.baseline{stroke:#20262e;stroke-width:1.1;shape-rendering:crispEdges}
.arrow{fill:none;stroke:#66717d;stroke-width:1.8;stroke-linecap:round;stroke-linejoin:round}
</style>
<rect class="figure-bg" x="0" y="0" width="960" height="385" fill="#ffffff" stroke="#d9dee7" stroke-width="1"/>
<text class="title" x="42" y="44">Portfolio Visual Summary</text>
<text class="subtitle" x="42" y="66">A project portfolio organized around the machine-learning work that matters: data, features, models, evaluation, and communication.</text>
<circle cx="96" cy="158" r="42" fill="white" stroke="#2E6F8E" stroke-width="3"/>
<circle cx="96" cy="158" r="9" fill="#2E6F8E"/>
<text class="label" x="96" y="226" text-anchor="middle">Data understanding</text>
<text class="tiny" x="96" y="242" text-anchor="middle">inspect distributions</text>
<text class="tiny" x="96" y="255" text-anchor="middle">missingness and structure</text>
<path class="arrow" d="M144 158 L220 158"/>
<path d="M217 153 L227 158 L217 163" fill="none" stroke="#66717d" stroke-width="1.8" stroke-linecap="round" stroke-linejoin="round"/>
<circle cx="268" cy="158" r="42" fill="white" stroke="#C49A3A" stroke-width="3"/>
<circle cx="268" cy="158" r="9" fill="#C49A3A"/>
<text class="label" x="268" y="226" text-anchor="middle">Feature design</text>
<text class="tiny" x="268" y="242" text-anchor="middle">scale encode group</text>
<text class="tiny" x="268" y="255" text-anchor="middle">extract domain signals</text>
<path class="arrow" d="M316 158 L408 158"/>
<path d="M405 153 L415 158 L405 163" fill="none" stroke="#66717d" stroke-width="1.8" stroke-linecap="round" stroke-linejoin="round"/>
<circle cx="456" cy="158" r="42" fill="white" stroke="#B45F3C" stroke-width="3"/>
<circle cx="456" cy="158" r="9" fill="#B45F3C"/>
<text class="label" x="456" y="226" text-anchor="middle">Model families</text>
<text class="tiny" x="456" y="242" text-anchor="middle">linear distance tree</text>
<text class="tiny" x="456" y="255" text-anchor="middle">margin clustering neural</text>
<path class="arrow" d="M504 158 L604 158"/>
<path d="M601 153 L611 158 L601 163" fill="none" stroke="#66717d" stroke-width="1.8" stroke-linecap="round" stroke-linejoin="round"/>
<circle cx="652" cy="158" r="42" fill="white" stroke="#6B5CA5" stroke-width="3"/>
<circle cx="652" cy="158" r="9" fill="#6B5CA5"/>
<text class="label" x="652" y="226" text-anchor="middle">Evaluation</text>
<text class="tiny" x="652" y="242" text-anchor="middle">classification reports</text>
<text class="tiny" x="652" y="255" text-anchor="middle">residuals confusion matrices</text>
<path class="arrow" d="M700 158 L776 158"/>
<path d="M773 153 L783 158 L773 163" fill="none" stroke="#66717d" stroke-width="1.8" stroke-linecap="round" stroke-linejoin="round"/>
<circle cx="824" cy="158" r="42" fill="white" stroke="#3F7D5A" stroke-width="3"/>
<circle cx="824" cy="158" r="9" fill="#3F7D5A"/>
<text class="label" x="824" y="226" text-anchor="middle">Communication</text>
<text class="tiny" x="824" y="242" text-anchor="middle">notebooks READMEs</text>
<text class="tiny" x="824" y="255" text-anchor="middle">figures dashboards artifacts</text>
<text class="label" x="42" y="305">Representative strengths</text>
<line x1="26" y1="332" x2="154" y2="332" stroke="#2E6F8E" stroke-width="5" stroke-linecap="round"/>
<text class="small" x="90" y="356" text-anchor="middle">Interpretable baselines</text>
<line x1="221" y1="332" x2="349" y2="332" stroke="#B45F3C" stroke-width="5" stroke-linecap="round"/>
<text class="small" x="285" y="356" text-anchor="middle">Model comparison</text>
<line x1="406" y1="332" x2="534" y2="332" stroke="#3F7D5A" stroke-width="5" stroke-linecap="round"/>
<text class="small" x="470" y="356" text-anchor="middle">Custom algorithms</text>
<line x1="576" y1="332" x2="704" y2="332" stroke="#C49A3A" stroke-width="5" stroke-linecap="round"/>
<text class="small" x="640" y="356" text-anchor="middle">Feature engineering</text>
<line x1="751" y1="332" x2="879" y2="332" stroke="#6B5CA5" stroke-width="5" stroke-linecap="round"/>
<text class="small" x="815" y="356" text-anchor="middle">Deep learning</text>
</svg>
