<svg xmlns="http://www.w3.org/2000/svg" width="960" height="385" viewBox="0 0 960 385" role="img">
<style>
.title{font:700 26px Arial,Helvetica,sans-serif;fill:#20262e}
.subtitle{font:400 13px Arial,Helvetica,sans-serif;fill:#66717d}
.label{font:700 12px Arial,Helvetica,sans-serif;fill:#20262e}
.text{font:400 12px Arial,Helvetica,sans-serif;fill:#20262e}
.small{font:400 11px Arial,Helvetica,sans-serif;fill:#66717d}
.tiny{font:400 10px Arial,Helvetica,sans-serif;fill:#66717d}
.num{font:700 32px Arial,Helvetica,sans-serif;fill:#20262e}
.axis{font:400 10px Arial,Helvetica,sans-serif;fill:#66717d}
.grid{stroke:#ded9cc;stroke-width:1;shape-rendering:crispEdges}
.baseline{stroke:#20262e;stroke-width:1.1;shape-rendering:crispEdges}
</style>
<rect class="figure-bg" x="0" y="0" width="960" height="385" fill="#ffffff" stroke="#d9dee7" stroke-width="1"/>
<text class="title" x="42" y="42">Model Map</text>
<text class="subtitle" x="42" y="64">Projects grouped by learning family and problem type.</text>
<text class="label" x="300" y="105">Classification</text>
<line x1="300" y1="116" x2="430" y2="116" stroke="#B45F3C" stroke-width="2"/>
<text class="label" x="95" y="105">Regression</text>
<line x1="95" y1="116" x2="225" y2="116" stroke="#2E6F8E" stroke-width="2"/>
<text class="label" x="610" y="105">Clustering</text>
<line x1="610" y1="116" x2="740" y2="116" stroke="#3F7D5A" stroke-width="2"/>
<text class="label" x="770" y="105">Neural Network</text>
<line x1="770" y1="116" x2="900" y2="116" stroke="#6B5CA5" stroke-width="2"/>
<circle cx="300" cy="144" r="5" fill="#B45F3C"/>
<text class="text" x="314" y="148">Logistic Regression</text>
<text class="tiny" x="314" y="164">Ad click prediction</text>
<circle cx="300" cy="187" r="5" fill="#B45F3C"/>
<text class="text" x="314" y="191">KNN</text>
<text class="tiny" x="314" y="207">K-nearest neighbors</text>
<circle cx="300" cy="230" r="5" fill="#B45F3C"/>
<text class="text" x="314" y="234">SVM</text>
<text class="tiny" x="314" y="250">Iris species</text>
<circle cx="300" cy="273" r="5" fill="#B45F3C"/>
<text class="text" x="314" y="277">Decision Trees &amp; RF</text>
<text class="tiny" x="314" y="293">Loan outcomes</text>
<circle cx="300" cy="316" r="5" fill="#B45F3C"/>
<text class="text" x="314" y="320">Titanic Kaggle</text>
<text class="tiny" x="314" y="336">Passenger survival</text>
<circle cx="95" cy="144" r="5" fill="#2E6F8E"/>
<text class="text" x="109" y="148">Linear Regression</text>
<text class="tiny" x="109" y="164">Ecommerce spending</text>
<circle cx="610" cy="144" r="5" fill="#3F7D5A"/>
<text class="text" x="624" y="148">K-Means</text>
<text class="tiny" x="624" y="164">Clustering from scratch</text>
<circle cx="770" cy="144" r="5" fill="#6B5CA5"/>
<text class="text" x="784" y="148">LendingClub NN</text>
<text class="tiny" x="784" y="164">Loan repayment</text>
<path d="M 282 132 C 255 185, 255 280, 282 336" fill="none" stroke="#f1eee7" stroke-width="2"/>
</svg>
