<svg xmlns="http://www.w3.org/2000/svg" width="960" height="330" viewBox="0 0 960 330" role="img">
<style>
.title{font:700 26px Arial,Helvetica,sans-serif;fill:#20262e}
.subtitle{font:400 13px Arial,Helvetica,sans-serif;fill:#66717d}
.label{font:700 12px Arial,Helvetica,sans-serif;fill:#20262e}
.text{font:400 12px Arial,Helvetica,sans-serif;fill:#20262e}
.small{font:400 11px Arial,Helvetica,sans-serif;fill:#66717d}
.tiny{font:400 10px Arial,Helvetica,sans-serif;fill:#66717d}
.num{font:700 32px Arial,Helvetica,sans-serif;fill:#20262e}
.axis{font:400 10px Arial,Helvetica,sans-serif;fill:#66717d}
.grid{stroke:#ded9cc;stroke-width:1;shape-rendering:crispEdges}
.baseline{stroke:#20262e;stroke-width:1.1;shape-rendering:crispEdges}
</style>
<text class="title" x="42" y="46">Machine Learning Portfolio</text>
<text class="subtitle" x="42" y="68">Breadth across classical ML, feature engineering, Kaggle workflows, and neural networks.</text>
<text class="num" x="52" y="142">8</text>
<text class="small" x="52" y="164">main projects</text>
<text class="num" x="274" y="142">10</text>
<text class="small" x="274" y="164">notebooks</text>
<text class="num" x="496" y="142">8</text>
<text class="small" x="496" y="164">data files</text>
<text class="num" x="718" y="142">409,445</text>
<text class="small" x="718" y="164">local rows</text>
<line class="baseline" x1="70" y1="235" x2="890" y2="235"/>
<text class="label" x="42" y="216">Model-family composition</text>
<line x1="70.0" y1="235" x2="582.5" y2="235" stroke="#B45F3C" stroke-width="16"/>
<line x1="70.0" y1="221" x2="70.0" y2="249" stroke="#ffffff" stroke-width="1"/>
<text class="small" x="326.2" y="277" text-anchor="middle">Classification</text>
<text class="tiny" x="326.2" y="293" text-anchor="middle">5 of 8</text>
<line x1="582.5" y1="235" x2="685.0" y2="235" stroke="#2E6F8E" stroke-width="16"/>
<line x1="582.5" y1="221" x2="582.5" y2="249" stroke="#ffffff" stroke-width="1"/>
<text class="small" x="633.8" y="277" text-anchor="middle">Regression</text>
<text class="tiny" x="633.8" y="293" text-anchor="middle">1 of 8</text>
<line x1="685.0" y1="235" x2="787.5" y2="235" stroke="#3F7D5A" stroke-width="16"/>
<line x1="685.0" y1="221" x2="685.0" y2="249" stroke="#ffffff" stroke-width="1"/>
<text class="small" x="736.2" y="277" text-anchor="middle">Clustering</text>
<text class="tiny" x="736.2" y="293" text-anchor="middle">1 of 8</text>
<line x1="787.5" y1="235" x2="890.0" y2="235" stroke="#6B5CA5" stroke-width="16"/>
<line x1="787.5" y1="221" x2="787.5" y2="249" stroke="#ffffff" stroke-width="1"/>
<text class="small" x="838.8" y="277" text-anchor="middle">Neural Network</text>
<text class="tiny" x="838.8" y="293" text-anchor="middle">1 of 8</text>
<line x1="890" y1="221" x2="890" y2="249" stroke="#ffffff" stroke-width="1"/>
</svg>
