<svg xmlns="http://www.w3.org/2000/svg" width="960" height="390" viewBox="0 0 960 390" role="img">
<style>
.title{font:700 26px Arial,Helvetica,sans-serif;fill:#20262e}
.subtitle{font:400 13px Arial,Helvetica,sans-serif;fill:#66717d}
.label{font:700 12px Arial,Helvetica,sans-serif;fill:#20262e}
.text{font:400 12px Arial,Helvetica,sans-serif;fill:#20262e}
.small{font:400 11px Arial,Helvetica,sans-serif;fill:#66717d}
.tiny{font:400 10px Arial,Helvetica,sans-serif;fill:#66717d}
.num{font:700 30px Arial,Helvetica,sans-serif;fill:#20262e}
.axis{font:400 10px Arial,Helvetica,sans-serif;fill:#66717d}
.grid{stroke:#ded9cc;stroke-width:1;shape-rendering:crispEdges}
.baseline{stroke:#20262e;stroke-width:1.1;shape-rendering:crispEdges}
.arrow{fill:none;stroke:#66717d;stroke-width:1.8;stroke-linecap:round;stroke-linejoin:round}
</style>
<rect class="figure-bg" x="0" y="0" width="960" height="390" fill="#ffffff" stroke="#d9dee7" stroke-width="1"/>
<text class="title" x="42" y="46">Project Method Map</text>
<text class="subtitle" x="42" y="68">A compact view of what each project demonstrates, focused on methods and modeling practice rather than notebook size.</text>
<text class="axis" x="215" y="98" text-anchor="middle">Linear</text>
<text class="axis" x="300" y="98" text-anchor="middle">Logistic</text>
<text class="axis" x="385" y="98" text-anchor="middle">KNN</text>
<text class="axis" x="470" y="98" text-anchor="middle">SVM</text>
<text class="axis" x="555" y="98" text-anchor="middle">Trees/RF</text>
<text class="axis" x="640" y="98" text-anchor="middle">K-Means</text>
<text class="axis" x="725" y="98" text-anchor="middle">Titanic</text>
<text class="axis" x="810" y="98" text-anchor="middle">Lending NN</text>
<text class="label" x="42" y="124">Regression</text>
<line x1="187" y1="120" x2="838" y2="120" stroke="#f7f3ea" stroke-width="1"/>
<circle cx="215" cy="120" r="7" fill="#2E6F8E"/>
<circle cx="300" cy="120" r="3" fill="white" stroke="#ded9cc" stroke-width="1"/>
<circle cx="385" cy="120" r="3" fill="white" stroke="#ded9cc" stroke-width="1"/>
<circle cx="470" cy="120" r="3" fill="white" stroke="#ded9cc" stroke-width="1"/>
<circle cx="555" cy="120" r="3" fill="white" stroke="#ded9cc" stroke-width="1"/>
<circle cx="640" cy="120" r="3" fill="white" stroke="#ded9cc" stroke-width="1"/>
<circle cx="725" cy="120" r="3" fill="white" stroke="#ded9cc" stroke-width="1"/>
<circle cx="810" cy="120" r="3" fill="white" stroke="#ded9cc" stroke-width="1"/>
<text class="label" x="42" y="160">Binary class.</text>
<line x1="187" y1="156" x2="838" y2="156" stroke="#f7f3ea" stroke-width="1"/>
<circle cx="215" cy="156" r="3" fill="white" stroke="#ded9cc" stroke-width="1"/>
<circle cx="300" cy="156" r="7" fill="#B45F3C"/>
<circle cx="385" cy="156" r="7" fill="#B45F3C"/>
<circle cx="470" cy="156" r="3" fill="white" stroke="#ded9cc" stroke-width="1"/>
<circle cx="555" cy="156" r="7" fill="#B45F3C"/>
<circle cx="640" cy="156" r="3" fill="white" stroke="#ded9cc" stroke-width="1"/>
<circle cx="725" cy="156" r="7" fill="#B45F3C"/>
<circle cx="810" cy="156" r="7" fill="#B45F3C"/>
<text class="label" x="42" y="196">Multiclass</text>
<line x1="187" y1="192" x2="838" y2="192" stroke="#f7f3ea" stroke-width="1"/>
<circle cx="215" cy="192" r="3" fill="white" stroke="#ded9cc" stroke-width="1"/>
<circle cx="300" cy="192" r="3" fill="white" stroke="#ded9cc" stroke-width="1"/>
<circle cx="385" cy="192" r="3" fill="white" stroke="#ded9cc" stroke-width="1"/>
<circle cx="470" cy="192" r="7" fill="#B45F3C"/>
<circle cx="555" cy="192" r="3" fill="white" stroke="#ded9cc" stroke-width="1"/>
<circle cx="640" cy="192" r="3" fill="white" stroke="#ded9cc" stroke-width="1"/>
<circle cx="725" cy="192" r="3" fill="white" stroke="#ded9cc" stroke-width="1"/>
<circle cx="810" cy="192" r="3" fill="white" stroke="#ded9cc" stroke-width="1"/>
<text class="label" x="42" y="232">Unsupervised</text>
<line x1="187" y1="228" x2="838" y2="228" stroke="#f7f3ea" stroke-width="1"/>
<circle cx="215" cy="228" r="3" fill="white" stroke="#ded9cc" stroke-width="1"/>
<circle cx="300" cy="228" r="3" fill="white" stroke="#ded9cc" stroke-width="1"/>
<circle cx="385" cy="228" r="3" fill="white" stroke="#ded9cc" stroke-width="1"/>
<circle cx="470" cy="228" r="3" fill="white" stroke="#ded9cc" stroke-width="1"/>
<circle cx="555" cy="228" r="3" fill="white" stroke="#ded9cc" stroke-width="1"/>
<circle cx="640" cy="228" r="7" fill="#3F7D5A"/>
<circle cx="725" cy="228" r="3" fill="white" stroke="#ded9cc" stroke-width="1"/>
<circle cx="810" cy="228" r="3" fill="white" stroke="#ded9cc" stroke-width="1"/>
<text class="label" x="42" y="268">Feature eng.</text>
<line x1="187" y1="264" x2="838" y2="264" stroke="#f7f3ea" stroke-width="1"/>
<circle cx="215" cy="264" r="3" fill="white" stroke="#ded9cc" stroke-width="1"/>
<circle cx="300" cy="264" r="3" fill="white" stroke="#ded9cc" stroke-width="1"/>
<circle cx="385" cy="264" r="3" fill="white" stroke="#ded9cc" stroke-width="1"/>
<circle cx="470" cy="264" r="3" fill="white" stroke="#ded9cc" stroke-width="1"/>
<circle cx="555" cy="264" r="3" fill="white" stroke="#ded9cc" stroke-width="1"/>
<circle cx="640" cy="264" r="3" fill="white" stroke="#ded9cc" stroke-width="1"/>
<circle cx="725" cy="264" r="7" fill="#C49A3A"/>
<circle cx="810" cy="264" r="7" fill="#C49A3A"/>
<text class="label" x="42" y="304">Deep learning</text>
<line x1="187" y1="300" x2="838" y2="300" stroke="#f7f3ea" stroke-width="1"/>
<circle cx="215" cy="300" r="3" fill="white" stroke="#ded9cc" stroke-width="1"/>
<circle cx="300" cy="300" r="3" fill="white" stroke="#ded9cc" stroke-width="1"/>
<circle cx="385" cy="300" r="3" fill="white" stroke="#ded9cc" stroke-width="1"/>
<circle cx="470" cy="300" r="3" fill="white" stroke="#ded9cc" stroke-width="1"/>
<circle cx="555" cy="300" r="3" fill="white" stroke="#ded9cc" stroke-width="1"/>
<circle cx="640" cy="300" r="3" fill="white" stroke="#ded9cc" stroke-width="1"/>
<circle cx="725" cy="300" r="3" fill="white" stroke="#ded9cc" stroke-width="1"/>
<circle cx="810" cy="300" r="7" fill="#6B5CA5"/>
<text class="small" x="42" y="360">Read horizontally for method coverage; read vertically for what each project contributes.</text>
</svg>
