<svg xmlns="http://www.w3.org/2000/svg" width="960" height="430" viewBox="0 0 960 430" role="img">
<style>
.title{font:700 26px Arial,Helvetica,sans-serif;fill:#20262e}
.subtitle{font:400 13px Arial,Helvetica,sans-serif;fill:#66717d}
.label{font:700 12px Arial,Helvetica,sans-serif;fill:#20262e}
.text{font:400 12px Arial,Helvetica,sans-serif;fill:#20262e}
.small{font:400 11px Arial,Helvetica,sans-serif;fill:#66717d}
.tiny{font:400 10px Arial,Helvetica,sans-serif;fill:#66717d}
.num{font:700 32px Arial,Helvetica,sans-serif;fill:#20262e}
.axis{font:400 10px Arial,Helvetica,sans-serif;fill:#66717d}
.grid{stroke:#ded9cc;stroke-width:1;shape-rendering:crispEdges}
.baseline{stroke:#20262e;stroke-width:1.1;shape-rendering:crispEdges}
</style>
<text class="title" x="42" y="42">Notebook Depth</text>
<text class="subtitle" x="42" y="64">Executable code cells by project. Larger notebooks tend to include more EDA, feature engineering, and evaluation.</text>
<line class="grid" x1="270.0" y1="82" x2="270.0" y2="356"/>
<text class="axis" x="270.0" y="382" text-anchor="middle">0</text>
<line class="grid" x1="415.0" y1="82" x2="415.0" y2="356"/>
<text class="axis" x="415.0" y="382" text-anchor="middle">35</text>
<line class="grid" x1="560.0" y1="82" x2="560.0" y2="356"/>
<text class="axis" x="560.0" y="382" text-anchor="middle">70</text>
<line class="grid" x1="705.0" y1="82" x2="705.0" y2="356"/>
<text class="axis" x="705.0" y="382" text-anchor="middle">105</text>
<line class="grid" x1="850.0" y1="82" x2="850.0" y2="356"/>
<text class="axis" x="850.0" y="382" text-anchor="middle">140</text>
<line class="baseline" x1="270" y1="356" x2="850" y2="356"/>
<text class="text" x="42" y="92">Logistic Regression</text>
<line x1="270" y1="88" x2="332.1" y2="88" stroke="#f1eee7" stroke-width="2"/>
<circle cx="332.1" cy="88" r="6" fill="#B45F3C"/>
<text class="small" x="344.1" y="92">15</text>
<text class="text" x="42" y="126">K-Means</text>
<line x1="270" y1="122" x2="340.4" y2="122" stroke="#f1eee7" stroke-width="2"/>
<circle cx="340.4" cy="122" r="6" fill="#3F7D5A"/>
<text class="small" x="352.4" y="126">17</text>
<text class="text" x="42" y="160">KNN</text>
<line x1="270" y1="156" x2="352.9" y2="156" stroke="#f1eee7" stroke-width="2"/>
<circle cx="352.9" cy="156" r="6" fill="#B45F3C"/>
<text class="small" x="364.9" y="160">20</text>
<text class="text" x="42" y="194">Linear Regression</text>
<line x1="270" y1="190" x2="365.3" y2="190" stroke="#f1eee7" stroke-width="2"/>
<circle cx="365.3" cy="190" r="6" fill="#2E6F8E"/>
<text class="small" x="377.3" y="194">23</text>
<text class="text" x="42" y="228">Decision Trees &amp; RF</text>
<line x1="270" y1="224" x2="369.4" y2="224" stroke="#f1eee7" stroke-width="2"/>
<circle cx="369.4" cy="224" r="6" fill="#B45F3C"/>
<text class="small" x="381.4" y="228">24</text>
<text class="text" x="42" y="262">SVM</text>
<line x1="270" y1="258" x2="381.9" y2="258" stroke="#f1eee7" stroke-width="2"/>
<circle cx="381.9" cy="258" r="6" fill="#B45F3C"/>
<text class="small" x="393.9" y="262">27</text>
<text class="text" x="42" y="296">Titanic Kaggle</text>
<line x1="270" y1="292" x2="767.1" y2="292" stroke="#f1eee7" stroke-width="2"/>
<circle cx="767.1" cy="292" r="6" fill="#B45F3C"/>
<text class="small" x="779.1" y="296">120</text>
<text class="text" x="42" y="330">LendingClub NN</text>
<line x1="270" y1="326" x2="841.7" y2="326" stroke="#f1eee7" stroke-width="2"/>
<circle cx="841.7" cy="326" r="6" fill="#6B5CA5"/>
<text class="small" x="853.7" y="330">138</text>
<text class="axis" x="560" y="410" text-anchor="middle">Executable code cells</text>
</svg>
