<svg xmlns="http://www.w3.org/2000/svg" width="960" height="405" viewBox="0 0 960 405" role="img">
<style>
.title{font:700 26px Arial,Helvetica,sans-serif;fill:#20262e}
.subtitle{font:400 13px Arial,Helvetica,sans-serif;fill:#66717d}
.label{font:700 12px Arial,Helvetica,sans-serif;fill:#20262e}
.text{font:400 12px Arial,Helvetica,sans-serif;fill:#20262e}
.small{font:400 11px Arial,Helvetica,sans-serif;fill:#66717d}
.tiny{font:400 10px Arial,Helvetica,sans-serif;fill:#66717d}
.num{font:700 32px Arial,Helvetica,sans-serif;fill:#20262e}
.axis{font:400 10px Arial,Helvetica,sans-serif;fill:#66717d}
.grid{stroke:#ded9cc;stroke-width:1;shape-rendering:crispEdges}
.baseline{stroke:#20262e;stroke-width:1.1;shape-rendering:crispEdges}
.sketch{fill:none;stroke:#20262e;stroke-width:2.2;stroke-linecap:round;stroke-linejoin:round}
.soft{fill:#f7f3ea;stroke:#ded9cc;stroke-width:1.2}
</style>
<text class="title" x="42" y="42">Project Sketchbook</text>
<text class="subtitle" x="42" y="64">Eight projects, each represented by a small visual metaphor plus its modeling family.</text>
<text class="label" x="46" y="213">Linear</text>
<text class="tiny" x="46" y="229">Regression</text>
<line class="baseline" x1="52" y1="177" x2="158" y2="177"/>
<line class="baseline" x1="52" y1="177" x2="52" y2="90"/>
<path d="M64 163 C90 139, 122 123, 150 99" fill="none" stroke="#2E6F8E" stroke-width="3"/>
<circle cx="66" cy="153" r="4" fill="#2E6F8E"/>
<circle cx="90" cy="141" r="4" fill="#2E6F8E"/>
<circle cx="112" cy="131" r="4" fill="#2E6F8E"/>
<circle cx="134" cy="115" r="4" fill="#2E6F8E"/>
<circle cx="148" cy="105" r="4" fill="#2E6F8E"/>
<text class="label" x="251" y="213">Logistic</text>
<text class="tiny" x="251" y="229">Classification</text>
<path d="M257 163 C285 165, 297 101, 357 101" fill="none" stroke="#B45F3C" stroke-width="3"/>
<line class="baseline" x1="253" y1="177" x2="363" y2="177"/>
<line class="baseline" x1="253" y1="177" x2="253" y2="87"/>
<circle cx="267" cy="159" r="4" fill="#B45F3C"/>
<circle cx="287" cy="149" r="4" fill="#B45F3C"/>
<circle cx="308" cy="127" r="4" fill="#B45F3C"/>
<circle cx="331" cy="107" r="4" fill="#B45F3C"/>
<circle cx="351" cy="101" r="4" fill="#B45F3C"/>
<text class="label" x="456" y="213">KNN</text>
<text class="tiny" x="456" y="229">Classification</text>
<circle cx="474" cy="115" r="7" fill="#B45F3C" opacity="0.9"/>
<circle cx="488" cy="133" r="7" fill="#B45F3C" opacity="0.9"/>
<circle cx="466" cy="151" r="7" fill="#B45F3C" opacity="0.9"/>
<circle cx="534" cy="111" r="7" fill="#2E6F8E" opacity="0.9"/>
<circle cx="548" cy="133" r="7" fill="#2E6F8E" opacity="0.9"/>
<circle cx="528" cy="153" r="7" fill="#2E6F8E" opacity="0.9"/>
<circle cx="510" cy="135" r="8" fill="white" stroke="#20262e" stroke-width="2"/>
<path class="sketch" d="M510 135 L488 133 M510 135 L528 153 M510 135 L534 111" opacity="0.5"/>
<text class="label" x="661" y="213">SVM</text>
<text class="tiny" x="661" y="229">Classification</text>
<line x1="667" y1="163" x2="763" y2="107" stroke="#B45F3C" stroke-width="3"/>
<line x1="681" y1="171" x2="777" y2="115" stroke="#B45F3C" stroke-width="1.4" stroke-dasharray="5 5"/>
<line x1="653" y1="155" x2="749" y2="99" stroke="#B45F3C" stroke-width="1.4" stroke-dasharray="5 5"/>
<circle cx="679" cy="117" r="6" fill="#B45F3C"/>
<circle cx="697" cy="107" r="6" fill="#B45F3C"/>
<circle cx="695" cy="127" r="6" fill="#B45F3C"/>
<circle cx="743" cy="151" r="6" fill="#2E6F8E"/>
<circle cx="757" cy="135" r="6" fill="#2E6F8E"/>
<circle cx="731" cy="163" r="6" fill="#2E6F8E"/>
<text class="label" x="46" y="353">Trees/RF</text>
<text class="tiny" x="46" y="369">Classification</text>
<circle cx="100" cy="237" r="7" fill="#B45F3C"/>
<circle cx="68" cy="273" r="7" fill="#B45F3C"/>
<circle cx="132" cy="273" r="7" fill="#B45F3C"/>
<circle cx="52" cy="309" r="7" fill="#B45F3C"/>
<circle cx="84" cy="309" r="7" fill="#B45F3C"/>
<circle cx="116" cy="309" r="7" fill="#B45F3C"/>
<circle cx="148" cy="309" r="7" fill="#B45F3C"/>
<path class="sketch" d="M100 244 L68 266 M100 244 L132 266 M68 280 L52 302 M68 280 L84 302 M132 280 L116 302 M132 280 L148 302"/>
<text class="label" x="251" y="353">K-Means</text>
<text class="tiny" x="251" y="369">Clustering</text>
<path d="M264 257 C275 237, 298 245, 292 267 C280 281, 258 271, 264 257" fill="none" stroke="#2E6F8E" stroke-width="2"/>
<circle cx="280" cy="257" r="5" fill="#2E6F8E"/>
<path d="M319 285 C330 265, 353 273, 347 295 C335 309, 313 299, 319 285" fill="none" stroke="#3F7D5A" stroke-width="2"/>
<circle cx="335" cy="285" r="5" fill="#3F7D5A"/>
<path d="M271 303 C282 283, 305 291, 299 313 C287 327, 265 317, 271 303" fill="none" stroke="#B45F3C" stroke-width="2"/>
<circle cx="287" cy="303" r="5" fill="#B45F3C"/>
<text class="label" x="456" y="353">Titanic</text>
<text class="tiny" x="456" y="369">Classification</text>
<path class="sketch" d="M458 303 C498 319, 540 317, 568 299"/>
<path d="M468 293 L548 293 L530 315 L486 315 Z" fill="#dbeafe" stroke="#20262e" stroke-width="2"/>
<path d="M492 293 L506 247 L530 293" fill="white" stroke="#20262e" stroke-width="2"/>
<circle cx="552" cy="245" r="8" fill="#B45F3C"/>
<text class="label" x="661" y="353">Lending NN</text>
<text class="tiny" x="661" y="369">Neural Network</text>
<line x1="671" y1="245" x2="715" y2="257" stroke="#f1eee7" stroke-width="1.4"/>
<line x1="671" y1="245" x2="715" y2="293" stroke="#f1eee7" stroke-width="1.4"/>
<line x1="671" y1="275" x2="715" y2="257" stroke="#f1eee7" stroke-width="1.4"/>
<line x1="671" y1="275" x2="715" y2="293" stroke="#f1eee7" stroke-width="1.4"/>
<line x1="671" y1="305" x2="715" y2="257" stroke="#f1eee7" stroke-width="1.4"/>
<line x1="671" y1="305" x2="715" y2="293" stroke="#f1eee7" stroke-width="1.4"/>
<line x1="715" y1="257" x2="759" y2="247" stroke="#f1eee7" stroke-width="1.4"/>
<line x1="715" y1="257" x2="759" y2="275" stroke="#f1eee7" stroke-width="1.4"/>
<line x1="715" y1="257" x2="759" y2="303" stroke="#f1eee7" stroke-width="1.4"/>
<line x1="715" y1="293" x2="759" y2="247" stroke="#f1eee7" stroke-width="1.4"/>
<line x1="715" y1="293" x2="759" y2="275" stroke="#f1eee7" stroke-width="1.4"/>
<line x1="715" y1="293" x2="759" y2="303" stroke="#f1eee7" stroke-width="1.4"/>
<circle cx="671" cy="245" r="6" fill="#6B5CA5"/>
<circle cx="671" cy="275" r="6" fill="#6B5CA5"/>
<circle cx="671" cy="305" r="6" fill="#6B5CA5"/>
<circle cx="715" cy="257" r="6" fill="#6B5CA5"/>
<circle cx="715" cy="293" r="6" fill="#6B5CA5"/>
<circle cx="759" cy="247" r="6" fill="#6B5CA5"/>
<circle cx="759" cy="275" r="6" fill="#6B5CA5"/>
<circle cx="759" cy="303" r="6" fill="#6B5CA5"/>
</svg>
